# xmcd CD database file
#
# Track frame offsets:
#	150
#	11495
#	24927
#	40082
#	55295
#	70145
#	80880
#	91882
#	104250
#	117625
#
# Disc length: 1710 seconds
#
# Revision: 0
# Processed by: cddbd v1.5.1PL0 Copyright (c) Steve Scherf et al.
# Submitted via: CDex 1.51
#
DISCID=7c06ac0a
DTITLE=Benny Berry - Standing Here Alone
DYEAR=1900
DGENRE=Country
TTITLE0=Love me one more time
TTITLE1=I die ten thousend times a day
TTITLE2=I'm turning off a memory
TTITLE3=Standing here alone
TTITLE4=Forever's a long long time
TTITLE5=I can't get over you
TTITLE6=Pick up the pieces
TTITLE7=It's not her memory, it's mine
TTITLE8=Give my heart to you
TTITLE9=Time enough to say goodbye
EXTD=
EXTT0=
EXTT1=
EXTT2=
EXTT3=
EXTT4=
EXTT5=
EXTT6=
EXTT7=
EXTT8=
EXTT9=
PLAYORDER=
